PathFileType	4	(X/Y/Z)	C:/Users/beibeiliu/ov580/test_trc/User2\sequence.6_training_dense_left.trc
DataRate	CameraRate	NumFrames	NumMarkers	Units	OrigDataRate	OrigDataStartFrame	OrigNumFrames
120	120	24	19	mm	120	96	381
Frame#	Time	ThumbCMC			ThumbMCP			ThumbIP			ThumbTip			IndexMCP			IndexPIP			IndexTip			MiddleMCP			MiddlePIP			MiddleTip			RingMCP			RingPIP			RingTip			PinkyMCP			PinkyPIP			PinkyTip			BackHand1			BackHand2			BackHand3	
		X0	Y0	Z0	X1	Y1	Z1	X2	Y2	Z2	X3	Y3	Z3	X4	Y4	Z4	X5	Y5	Z5	X6	Y6	Z6	X7	Y7	Z7	X8	Y8	Z8	X9	Y9	Z9	X10	Y10	Z10	X11	Y11	Z11	X12	Y12	Z12	X13	Y13	Z13	X14	Y14	Z14	X15	Y15	Z15	X16	Y16	Z16	X17	Y17	Z17	X18	Y18	Z18	
95	0.791667	-232.786	46.6462	95.4873	-200.291	45.8929	71.9034	-176.432	26.4766	50.0389	-156.848	11.274	40.7568	-256.383	-12.0345	37.166	-249.836	-28.3775	12.5244	-230.527	-38.7946	-11.4464	-225.23	-33.7133	44.6575	-194.81	-29.4488	29.4109	-167.435	-2.5866	48.6189	-205.172	-40.6413	62.0187	-179.493	-30.295	54.0078	-165.956	0.191805	67.216	-197.725	-44.6116	86.2429	-169.134	-21.8157	75.2307	-173.862	7.51838	83.6693	-246.834	-23.3442	109.859	-252.418	-1.72468	138.562	-264.897	15.5623	103.156	
96	0.8	-232.517	44.9522	93.9661	-201.436	42.4009	70.9804	-172.916	30.9054	46.1817	-156.932	11.08	41.1332	-250.643	-13.6946	38.8625	-240.491	-27.1311	9.31318	-209.775	-31.1677	-7.09477	-221.658	-32.9161	47.5386	-186.688	-28.6508	31.387	-165.146	-1.09351	45.428	-201.963	-38.64	59.0819	-173.223	-25.2947	51.4168	-163.136	4.19078	66.414	-190.355	-42.4695	81.2	-166.788	-19.8957	73.313	-169.095	8.09319	85.3544	-241.037	-25.5328	110.546	-250.285	-9.69189	138.77	-261.02	13.8532	105.215	
97	0.808333	-232.864	42.9718	95.4765	-201.773	44.6953	71.4933	-175.899	33.7462	51.3315	-155.312	12.3548	39.7334	-246.718	-14.6274	39.7768	-227.542	-27.1725	8.84989	-194.46	-18.1481	1.18596	-215.81	-35.001	47.9692	-182.047	-25.0009	30.3032	-163.991	4.98054	44.8197	-196.791	-38.5735	59.8928	-167.914	-25.311	53.7489	-159.669	6.93733	66.937	-185.139	-41.712	82.4407	-163.136	-16.7506	71.9893	-168.087	12.9843	83.7474	-239.29	-25.8887	108.949	-245.276	-9.24624	142.135	-257.686	5.75813	104.116	
98	0.816667	-235.121	43.6826	93.6557	-202.505	48.1146	69.5955	-174.737	34.7336	46.2932	-156.74	16.0375	41.5812	-240.032	-19.6079	40.2891	-218.904	-26.9512	11.3547	-188.991	-12.7056	8.48208	-211.748	-35.1281	46.6366	-182.071	-25.5937	29.9019	-162.769	9.06369	47.3662	-190.932	-38.69	61.3347	-164.983	-24.4431	54.3822	-159.054	8.64199	64.6455	-180.388	-39.4434	83.2954	-160.877	-14.2097	72.5802	-167.561	16.765	83.2431	-233.172	-28.955	109.66	-241.697	-12.3726	142.555	-256.919	6.67161	106.799	
99	0.825	-234.079	36.751	92.7295	-203.843	43.6572	68.208	-177.114	39.3285	46.7262	-155.402	22.2689	39.2229	-235.8	-23.8513	37.5913	-217.597	-29.1973	12.6855	-185.725	-9.6839	10.4598	-208.359	-35.8297	46.9675	-176.543	-20.8458	29.7406	-162.877	13.335	47.0135	-184.93	-38.0051	60.3654	-163.438	-19.1102	50.9971	-160.131	13.983	62.91	-178.811	-38.268	83.1576	-157.666	-13.6498	72.4316	-166.801	15.2433	80.1511	-229.635	-32.4056	112.079	-239.618	-15.7506	138.968	-256.111	-0.798798	108.639	
100	0.833333	-236.393	37.45	97.3408	-206.136	45.9015	67.6671	-179.683	42.0141	47.422	-156.236	28.0772	36.4737	-235.813	-23.1368	38.1336	-218.17	-29.7941	12.1709	-184.819	-11.5641	5.83448	-201.747	-35.6379	42.5529	-174.158	-19.6868	29.0259	-163.46	17.0148	44.945	-185.052	-36.4305	59.9366	-162.218	-16.3456	49.3673	-158.872	18.6523	64.4251	-170.253	-36.6595	83.3085	-155.79	-10.2653	70.0291	-164.798	19.3045	78.6064	-225.182	-34.1474	110.341	-238.03	-15.5525	140.674	-253.509	-2.17948	105.391	
101	0.841667	-236.596	34.2372	92.3154	-208.089	43.9662	72.1416	-180.72	41.0649	49.6747	-157.822	31.2838	37.9353	-235.835	-23.4694	36.7327	-222.253	-29.0375	9.57366	-187.952	-17.3852	-4.99421	-202.119	-32.6116	44.1618	-169.821	-13.4956	29.8425	-160.092	17.3749	47.3553	-181.268	-33.608	57.1615	-156.932	-9.46649	50.8475	-158.948	21.2976	64.9669	-167.787	-34.8713	81.2014	-154.691	-8.55453	68.6602	-164.009	22.6756	80.0584	-223.302	-35.2171	109.524	-232.402	-21.6792	137.253	-253.177	-7.97381	102.216	
102	0.85	-237.888	33.8165	93.1596	-208.958	45.449	68.8372	-182.04	45.2583	49.5911	-157.966	35.3526	37.9248	-236.123	-23.5008	33.4126	-224.026	-29.068	6.76458	-199.112	-26.1986	-12.1762	-196.772	-31.2359	41.7938	-171.947	-8.57719	26.2025	-160.625	23.1056	46.9829	-177.174	-31.382	58.6497	-158.014	-4.98552	49.3803	-159.241	24.7715	67.8592	-168.508	-32.3624	79.572	-154.255	-2.91217	67.4603	-164.516	24.0229	82.4553	-218.631	-36.4096	108.31	-232.713	-22.0849	135.026	-249.436	-11.5667	103.989	
103	0.858333	-236.324	30.7248	96.8061	-211.802	45.2314	72.7823	-184.734	49.7278	48.7088	-160.264	39.387	36.0577	-233.331	-24.6432	36.0067	-224.315	-31.0719	7.45573	-207.125	-31.3614	-18.624	-196.428	-28.2127	41.001	-168.614	-4.74112	28.2851	-161.434	25.0462	45.8381	-177.633	-28.1109	55.1217	-158.388	-3.31508	48.0596	-162.403	27.5133	69.3402	-165.045	-31.0143	76.4503	-153.633	-0.39982	66.5296	-167.258	25.8086	82.4247	-215.457	-35.8292	107.208	-229.38	-24.3281	135.417	-246.751	-12.6798	104.989	
104	0.866667	-238.14	29.9699	99.2663	-212.259	43.0379	71.8673	-186.219	49.0525	47.4833	-161.544	38.6373	33.1078	-233.458	-25.1697	36.0222	-224.534	-33.4686	7.84361	-212.008	-39.631	-18.8685	-194.29	-28.4367	41.7877	-169.564	-4.91828	27.1862	-163.083	29.6676	49.2472	-173.096	-27.9457	53.3061	-157.972	-4.27186	46.5964	-164.257	27.2629	67.9131	-165.902	-31.1048	78.0853	-152.42	-1.39062	65.7587	-163.439	24.1231	83.069	-213.101	-39.207	108.314	-226.739	-27.6326	141.93	-247.151	-11.2248	106.511	
105	0.875	-237.262	25.797	97.105	-214.511	43.4198	72.455	-188.275	44.0172	47.9251	-167.579	41.7672	35.8801	-234.668	-25.0638	36.3676	-226.682	-34.7214	12.4917	-218.985	-41.8951	-18.9209	-198.158	-26.8933	38.8433	-171.995	-5.28299	25.2452	-164.347	29.3557	45.6328	-177.06	-29.7231	55.6086	-158.815	-0.40048	44.9637	-165.514	28.4263	68.8228	-161.119	-31.1422	76.1031	-149.516	-2.01187	64.2936	-165.675	21.3186	78.2839	-213.99	-36.8329	107.206	-226.054	-27.1331	139.788	-241.603	-16.8253	105.261	
106	0.883333	-240.389	27.8102	96.7955	-217.965	45.9051	71.473	-190.902	45.4465	45.2982	-166.332	36.5528	31.7417	-234.152	-29.5615	35.0166	-229.076	-37.3309	9.83496	-217.964	-42.2284	-17.0243	-194.248	-28.7985	36.7899	-172.495	-4.78871	25.0394	-164.578	28.8983	47.9304	-176.408	-29.8067	53.6579	-157.273	-4.13537	45.1382	-163.172	24.5603	65.5728	-161.157	-28.9957	70.2546	-147.554	-0.323412	63.7105	-165.32	24.5211	82.7426	-207.82	-39.0854	106.879	-221.744	-27.8587	140.995	-244.322	-15.843	107.102	
107	0.891667	-239.001	24.5483	99.9992	-217.207	40.1523	68.7508	-194.086	44.3574	46.4756	-169.926	37.3388	30.7019	-234.771	-30.6019	39.5382	-226.008	-39.6706	10.8453	-208.458	-38.0187	-16.0264	-193.091	-29.6785	37.252	-172.465	-2.79767	24.2037	-166.923	26.2255	45.0984	-172.8	-29.6661	52.4689	-155.115	-5.08368	43.6728	-166.461	25.8539	62.8119	-159.657	-29.7065	70.6699	-150.231	-0.638111	61.2297	-166.105	23.1011	77.9064	-204.789	-40.8545	108.403	-218.355	-29.0395	140.927	-242.709	-20.9901	107.525	
108	0.9	-239.627	22.1522	100.89	-218.313	37.2237	72.2448	-196.341	44.2459	45.4678	-172.996	39.0089	33.1733	-231.868	-33.3771	40.1034	-219.934	-39.3624	10.3087	-199.195	-22.7829	-13.7824	-193.813	-30.2779	36.2297	-171.776	-1.79585	24.7293	-171.95	29.1566	46.3452	-169.532	-28.9118	50.2132	-155.334	-4.26757	42.7302	-166.73	25.2906	63.7534	-157.146	-28.2454	71.1192	-147.911	3.44319	61.4259	-164.597	24.6068	74.1229	-204.923	-40.9633	107.828	-216.643	-32.4217	139.114	-237.876	-22.211	107.592	
109	0.908333	-237.257	19.1733	99.7011	-220.898	39.9527	71.0023	-196.042	43.3222	47.4269	-171.632	35.6447	32.3764	-223.688	-34.3559	38.5565	-211.702	-34.4727	12.0207	-191.032	-10.891	-1.53078	-193.089	-30.791	41.1444	-170.697	-2.44385	24.1888	-168.523	26.4697	47.9015	-169.703	-28.9713	51.2574	-155.915	0.271861	43.4726	-163.24	24.9888	63.2922	-153.797	-27.7048	70.566	-149.972	3.69248	59.621	-161.815	27.1055	77.4097	-201.578	-40.3898	111.149	-215.46	-33.4103	141.573	-238.696	-23.3554	110.733	
110	0.916667	-238.921	21.0409	102.509	-218.715	38.947	69.5343	-194.568	42.2348	46.3508	-171.506	33.509	36.085	-219.483	-32.8717	38.5463	-198.824	-28.1151	12.5509	-183.445	-0.744143	7.71214	-189.221	-29.4154	38.2683	-166.963	-1.80302	26.4931	-171.175	31.2621	51.7193	-169.159	-28.1613	51.1405	-154.18	-0.890871	42.995	-161.802	26.86	65.0674	-155.126	-27.3534	70.7591	-147.12	2.34443	60.4748	-160.948	24.2751	75.9926	-198.662	-41.1749	110.831	-211.612	-34.13	142.001	-237.735	-24.2338	109.823	
111	0.925	-236.237	18.6337	101.751	-219.052	38.5005	75.9204	-196.147	43.7747	48.5078	-171.634	38.7068	34.0645	-215.875	-32.081	37.543	-195.485	-26.7959	13.2005	-179.716	6.96789	15.1969	-187.854	-29.3275	36.9251	-165.633	-2.81559	27.0114	-168.589	30.1143	52.9099	-164.536	-27.1964	52.2734	-150.442	0.017286	43.6705	-160.363	27.46	64.3453	-151.273	-29.1791	74.124	-141.456	1.22938	59.9477	-157.833	29.1712	77.7984	-196.937	-41.8138	104.736	-210.481	-34.0526	139.597	-232.045	-25.4607	111.495	
112	0.933333	-237.182	19.3063	102.506	-217.547	37.9888	73.0914	-195.139	43.7418	48.2708	-169.523	39.2831	33.0189	-216.062	-32.1065	37.3493	-196.774	-23.9274	8.91989	-179.662	8.68142	12.1793	-183.847	-30.7065	41.1959	-167.78	-2.01348	23.656	-168.025	29.7736	47.6458	-162.903	-25.499	49.7089	-150.713	1.4124	42.1518	-161.46	28.8821	62.1429	-149.303	-25.3824	68.726	-143.604	1.58965	58.5169	-158.914	27.381	75.9044	-193.722	-41.7356	108.661	-206.807	-35.3902	136.972	-230.853	-28.0296	108.593	
113	0.941667	-234.823	18.2164	99.7868	-218.532	37.9135	75.5839	-195.374	46.2009	47.3831	-169.403	39.8845	32.2164	-216.24	-32.1666	38.4244	-197.698	-27.8439	7.60512	-180.111	2.11004	2.55826	-179.93	-28.2914	36.3888	-167.092	-0.459526	22.734	-168.554	32.5781	52.3811	-162.378	-23.7458	47.319	-152.318	3.2861	41.0037	-160.94	32.1909	65.4937	-148.24	-25.0499	70.3997	-140.739	8.20238	59.4893	-157.636	30.5866	78.2334	-194.432	-41.9238	103.544	-202.029	-37.4134	139.134	-229.929	-26.4724	110.266	
114	0.95	-232.241	16.2895	105.308	-214.865	36.0895	72.8901	-193.15	43.9489	46.3521	-169.879	40.5823	35.8847	-217.296	-34.1401	38.6172	-202.651	-33.0287	7.23619	-181.61	-14.0975	-6.13678	-184.202	-27.1998	36.6167	-163.292	4.06762	24.9785	-166.486	32.1176	45.3464	-157.835	-23.292	47.1544	-149.857	3.2424	40.9564	-159.656	31.035	62.4509	-148.585	-24.9252	70.4775	-141.853	6.25428	57.7219	-155.458	29.1997	77.0436	-189.666	-40.7706	107.884	-197.398	-37.9659	136.006	-225.364	-29.2264	111.346	
115	0.958333	-228.028	14.3492	102.849	-214.884	36.2167	77.4099	-191.91	46.0665	46.0842	-168.589	41.3111	34.5943	-215.831	-34.2574	39.7453	-204.304	-37.7952	6.56228	-189.029	-26.2271	-14.4046	-176.951	-27.8407	37.1654	-158.64	4.40829	25.9792	-164.29	32.286	46.1085	-159.722	-23.7606	49.4637	-147.902	9.63008	41.8639	-160.527	31.0582	64.6773	-141.555	-22.5021	67.6243	-136.604	9.13521	60.8665	-159.436	28.0955	77.7452	-184.916	-41.8786	105.163	-197.099	-37.7458	136.229	-225.031	-27.3356	107.739	
116	0.966667	-226.436	14.431	104.272	-210.28	35.2552	71.8397	-190.798	46.406	47.7559	-164.512	39.3584	34.8416	-209.922	-33.9851	39.1605	-201.81	-40.3716	11.22	-188.983	-35.7717	-17.9292	-173.5	-28.2549	38.1892	-157.79	4.4885	22.928	-159.452	33.3156	49.7914	-152.927	-23.3852	50.1825	-144.702	9.45183	42.0637	-155.732	31.5934	66.5964	-139.153	-20.8779	66.9986	-132.993	10.1168	61.231	-155.05	28.218	80.1968	-184.643	-43.5254	103.159	-191.054	-40.5217	136.892	-221.495	-29.6855	109.583	
117	0.975	-222.854	15.411	102.295	-207.822	37.5306	69.8122	-186.862	45.2022	47.3229	-161.947	40.9234	34.0011	-204.08	-36.5231	36.0731	-199.259	-40.7733	7.28568	-185.99	-41.0245	-19.4969	-168.874	-28.0683	37.644	-150.585	2.03816	25.1307	-153.077	32.3111	49.2243	-150.402	-21.6342	47.9725	-140.421	5.84087	40.8804	-153.575	30.2949	67.7697	-132.952	-22.5378	70.8727	-130.46	11.0644	62.3369	-154.893	26.3494	80.2655	-178.01	-43.6473	101.196	-191.443	-36.2068	137.334	-212.879	-31.0448	107.152	
118	0.983333	-215.541	12.4792	100.432	-201.442	34.3027	69.527	-179.439	40.986	46.0995	-155.875	42.1637	29.811	-201.434	-36.5043	35.4845	-193.268	-41.6607	6.06792	-179.461	-41.3166	-18.0235	-165.595	-27.3105	36.8221	-148.711	2.38206	23.3957	-150.416	33.8142	49.8406	-140.177	-22.0134	47.7174	-132.013	6.03377	43.1539	-148.746	30.638	69.7976	-128.39	-23.3808	70.5368	-123.829	8.42714	61.6836	-149.784	24.5411	78.4667	-172.677	-45.2936	105.042	-185.089	-38.6981	137.718	-212.417	-28.7276	108.368	
